<?xml version="1.0" encoding="UTF-8"?>
<svg id="Layer_2" data-name="Layer 2" xmlns="http://www.w3.org/2000/svg" viewBox="0 0 908.11 162.44">
  <defs>
    <style>
      .cls-1 {
        fill: #8b17ff;
      }
    </style>
  </defs>
  <g id="Layer_1-2" data-name="Layer 1">
    <g>
      <g>
        <path class="cls-1" d="m190.71,111.27c-.37-3.08-.55-5.98-1.1-8.8-1.57-8.02-4.93-15.21-9.96-21.56-7.58-9.57-17.24-15.75-28.94-18.09-3.23-.64-4.96-2.04-6.77-4.78-8.53-12.92-20.5-18.58-35.52-16.74-14.97,1.83-27.17,13.79-30.32,28.97-.12.57-.62,1.25-1.12,1.5-11.88,6.06-20.27,15.42-24.95,28.23-3.12,8.54-3.86,17.37-2.31,26.4.13.78.25,1.57.37,2.35.01.09-.02.18-.06.53-2.11-.39-4.26-.64-6.32-1.19-17.84-4.78-30.95-15.68-38.64-33C-5.46,71.38.81,43.47,20.16,26.9c10.52-9.01,22.71-13.39,36.44-13.26,8.16.08,15.84,2.14,23.35,5.55,18.9,8.59,36.58,6.33,52.77-6.72,6.71-5.41,14.16-9.18,22.48-11.03,13.97-3.11,27.35-1.2,39.85,6.14,13.88,8.15,23.17,20.2,27.06,36.2,4.93,20.29.45,38.34-12.94,53.88-5.06,5.87-11.23,10.24-18.46,13.61Z"/>
        <path class="cls-1" d="m77.15,79.5c.43,2.59.62,5.17,1.33,7.59.61,2.07.13,3.25-1.26,4.79-6.53,7.25-8.15,15.87-4.63,25.02,3.63,9.43,10.77,14.55,20.67,15.2,1.61.11,3.25-.05,4.86-.24,15.85-1.9,31.7-3.84,47.55-5.77,11.77-1.43,20.28-10.65,20.7-22.85.37-10.72-6.03-19.69-15.13-23.23-.85-.33-1.14-.72-1.22-1.66-.26-2.96-.68-5.91-1.09-9.26,2.78.91,5.42,1.55,7.88,2.61,13.46,5.82,22.31,15.95,25.97,30.57,4.81,19.21-3.12,38.82-19.56,48.92-5.14,3.15-10.72,5.05-16.67,5.77-14.59,1.78-29.16,3.76-43.78,5.24-12.93,1.31-24.31-2.93-33.78-12.2-8.46-8.27-12.93-18.59-13.36-30.53-.5-13.91,4.47-25.57,14.47-34.83,1.93-1.79,4.18-3.2,6.3-4.78.24-.18.54-.27.76-.37Z"/>
        <path class="cls-1" d="m117.27,108.88c-16.31,1.93-31.08-10.1-33.13-26.99-2.06-16.92,9.68-32.11,26.33-34.07,15.9-1.87,30.87,10.46,32.79,27.02,1.98,16.96-9.57,32.09-25.99,34.04Z"/>
      </g>
      <g>
        <path class="cls-1" d="m284.19,80.32c-.59-1.65-1.53-2.48-3.31-2.48h-.59c-1.77,0-2.72.59-2.72,2.48v24.91c0,2.72-2.24,4.96-9.21,4.96-7.79,0-10.15-2.24-10.15-4.96s1.18-19.48,1.18-30.23v-22.08c0-7.32-6.26-6.38-6.26-10.15s8.5-5.79,15-5.79,9.45,3.19,9.45,10.27v19.25c0,1.89.71,2.48,2.24,2.48h.71c1.65,0,3.42-.94,4.61-2.95l14.05-24.32c1.89-3.19,3.42-4.37,9.45-4.37,5.08,0,6.61,1.42,6.61,3.07s-.47,2.6-1.65,4.13c-13.34,18.18-15.11,20.07-15.11,22.79s6.97,23.26,13.22,28.57c1.42,1.3,2.48,1.65,3.78,1.65.94,0,1.42-.24,2.24-.24,1.89,0,2.83,1.3,2.83,2.83,0,2.83-3.42,10.86-13.58,10.86-10.98,0-15-7.44-22.79-30.7Z"/>
        <path class="cls-1" d="m356.22,107.84h-22.32c-5.43,0-6.49-2.13-6.49-4.84s1.18-18.66,1.18-29.52v-22.08c0-7.32-6.26-6.38-6.26-10.04,0-3.9,8.5-5.9,15.11-5.9s9.56,3.19,9.56,10.27v50.53c0,1.54.83,2.36,2.36,2.36h5.67c11.57,0,16.18-11.45,20.54-11.45,3.54,0,3.66,4.01,3.66,9.68s-1.65,11.57-6.97,11.57c-3.78,0-10.39-.59-16.06-.59Z"/>
        <path class="cls-1" d="m414.55,107.84h-21.25c-5.43,0-6.49-2.13-6.49-4.84,0-2.24,1.18-18.77,1.18-29.52v-19.72c0-10.15-6.26-8.86-6.26-12.52,0-4.01,7.91-5.2,17.95-5.2h14.88c5.67,0,12.28-.59,16.06-.59,5.31,0,6.97,5.9,6.97,11.57,0,4.13-.35,7.67-3.66,7.67-4.25,0-8.27-9.45-20.31-9.45h-5.08c-1.54,0-2.36.83-2.36,2.36v16.53c0,1.54.83,2.36,2.36,2.36h12.28c2.12,0,2.83,1.42,2.83,4.01,0,3.9-1.77,5.9-4.25,5.9h-10.86c-1.54,0-2.36.83-2.36,2.48v17.36c0,1.54.83,2.36,2.36,2.36h5.9c11.45,0,16.18-9.56,20.43-9.56,3.31,0,3.66,3.54,3.66,7.79,0,5.67-1.65,11.57-6.97,11.57-3.78,0-11.33-.59-17-.59Z"/>
        <path class="cls-1" d="m450.09,103.7c0-2.83,1.18-19.36,1.18-30.23v-22.08c0-7.32-6.26-6.38-6.26-10.04,0-3.9,8.5-5.9,15.11-5.9s9.56,3.19,9.56,10.27v57.97c0,2.72-2.24,4.96-9.8,4.96s-9.8-2.24-9.8-4.96Z"/>
        <path class="cls-1" d="m537.11,108.54c-3.66,0-6.14-1.06-8.74-4.84l-28.57-41.44c-.59-.83-.94-.94-1.42-.94-.35,0-.83.35-.83,1.06,0,13.58,1.06,35.42,1.06,41.68,0,2.83-1.77,4.37-6.97,4.37s-7.08-1.53-7.08-4.37c0-5.55,2.01-32.71,2.01-53.96,0-5.31-6.97-5.55-6.97-8.62s5.55-6.49,12.52-6.49c7.67,0,12.4,3.07,19.48,13.11l20.43,29.05c.59.83.95.94,1.42.94.35,0,.83-.35.83-1.06,0-16.53-1.65-31.88-1.65-37.31,0-2.83,1.65-4.37,6.97-4.37s6.97,1.54,6.97,4.37c0,4.13-.71,21.96-1.06,35.07-.24,9.45.12,25.39.12,28.81,0,2.72-2.13,4.96-7.44,4.96h-1.06Z"/>
        <path class="cls-1" d="m588.83,107.84h-21.25c-5.43,0-6.49-2.13-6.49-4.84,0-2.24,1.18-18.77,1.18-29.52v-19.72c0-10.15-6.26-8.86-6.26-12.52,0-4.01,7.91-5.2,17.95-5.2h14.88c5.67,0,12.28-.59,16.06-.59,5.31,0,6.97,5.9,6.97,11.57,0,4.13-.35,7.67-3.66,7.67-4.25,0-8.27-9.45-20.31-9.45h-5.08c-1.54,0-2.36.83-2.36,2.36v16.53c0,1.54.83,2.36,2.36,2.36h12.28c2.12,0,2.83,1.42,2.83,4.01,0,3.9-1.77,5.9-4.25,5.9h-10.86c-1.54,0-2.36.83-2.36,2.48v17.36c0,1.54.83,2.36,2.36,2.36h5.9c11.45,0,16.18-9.56,20.43-9.56,3.31,0,3.66,3.54,3.66,7.79,0,5.67-1.65,11.57-6.97,11.57-3.78,0-11.33-.59-17-.59Z"/>
        <path class="cls-1" d="m672.78,107.84h-25.62c-6.38,0-7.79-2.83-7.79-6.38,0-13.11,33.06-50.54,33.06-54.9,0-1.06-.59-1.3-1.89-1.3h-7.32c-9.8,0-13.22,10.63-17.83,10.63-3.19,0-4.13-3.54-4.13-9.33s1.65-12.04,6.97-12.04c3.31,0,5.43,1.77,9.8,1.77s12.75-.24,20.9-.24,16.77.94,16.77,5.2c0,8.38-34,44.04-34,53.49,0,2.95,2.01,3.9,6.26,3.9h.35c16.06,0,18.54-11.45,23.73-11.45,3.66,0,3.66,4.01,3.66,9.68s-1.54,11.57-6.85,11.57c-3.9,0-10.51-.59-16.06-.59Z"/>
        <path class="cls-1" d="m701.24,71.94c0-22.67,12.63-37.55,34.59-37.55s34.71,15,34.71,37.55-12.63,37.55-34.71,37.55-34.59-14.88-34.59-37.55Zm50.06,0c0-18.42-5.55-27.39-15.47-27.39s-15.35,8.97-15.35,27.39,5.67,27.27,15.35,27.27,15.47-8.86,15.47-27.27Z"/>
        <path class="cls-1" d="m805.15,85.28c-.94-1.77-1.3-2.72-2.48-2.72h-.24c-1.06,0-1.65.47-1.65,1.65v19.48c0,2.72-2.24,4.96-9.33,4.96-7.79,0-10.15-2.24-10.15-4.96s1.18-19.36,1.18-30.23v-22.2c0-7.2-6.02-6.02-6.02-9.92,0-2.72,4.13-6.26,25.62-6.26h.47c21.25,0,33.53,9.8,33.53,23.61,0,10.15-7.67,16.18-13.7,19.13-2.95,1.42-3.31,1.65-3.31,2.36,0,.59.59,1.3,2.36,3.31,6.97,7.91,8.62,10.27,11.22,10.27,1.77,0,2.95-1.18,4.61-1.18,2.01,0,2.6,2.01,2.6,3.54,0,4.6-3.19,13.34-13.81,13.34s-13.46-9.09-20.9-24.2Zm11.81-25.98c0-13.7-9.33-15.47-12.99-15.47h-.24c-2.71,0-3.31.59-3.31,2.48v25.27c0,1.42.35,2.12,2.72,2.12,6.61,0,13.81-4.25,13.81-14.4Z"/>
        <path class="cls-1" d="m845.18,71.94c0-24.21,16.65-37.55,35.54-37.55,16.06,0,26.8,8.03,26.8,13.11,0,4.37-4.37,11.69-8.62,11.69-4.96,0-5.31-15.7-18.18-15.7-6.85,0-16.06,5.31-16.06,28.22,0,20.9,7.44,27.51,15.35,27.51s11.69-2.01,11.69-10.15v-.35c0-8.15-7.91-8.26-7.91-12.16,0-3.42,8.15-5.55,14.76-5.55s9.56,3.19,9.56,10.27v14.4c0,7.44-10.27,13.81-29.16,13.81s-33.77-13.22-33.77-37.55Z"/>
      </g>
    </g>
  </g>
</svg>