<?xml version="1.0" encoding="UTF-8"?>
<svg id="Layer_1" data-name="Layer 1" xmlns="http://www.w3.org/2000/svg" viewBox="0 0 360 357.5">
  <defs>
    <style>
      .cls-1 {
        stroke: #121212;
      }

      .cls-1, .cls-2 {
        fill: none;
        stroke-linecap: round;
        stroke-linejoin: round;
        stroke-width: 15px;
      }

      .cls-2 {
        stroke: #f5793b;
      }
    </style>
  </defs>
  <g>
    <polygon class="cls-1" points="297 287 297 71 189 179 81 71 81 287 121.5 287 121.5 179 189 246.5 256.5 179 256.5 287 297 287"/>
    <polyline class="cls-1" points="81 71 121.5 179 189 71 256.5 179 297 71"/>
  </g>
  <g>
    <polygon class="cls-2" points="288 287 288 71 180 179 72 71 72 287 112.5 287 112.5 179 180 246.5 247.5 179 247.5 287 288 287"/>
    <polyline class="cls-2" points="72 71 112.5 179 180 71 247.5 179 288 71"/>
  </g>
</svg>