<?xml version="1.0" encoding="UTF-8"?>
<svg id="Layer_1" data-name="Layer 1" xmlns="http://www.w3.org/2000/svg" viewBox="0 0 360 359.5">
  <defs>
    <style>
      .cls-1 {
        stroke: #00bcb0;
      }

      .cls-1, .cls-2 {
        fill: none;
        stroke-linecap: round;
        stroke-linejoin: round;
        stroke-width: 15px;
      }

      .cls-2 {
        stroke: #121212;
      }
    </style>
  </defs>
  <g>
    <polygon class="cls-2" points="297 288 297 72 189 180 81 72 81 288 121.5 288 121.5 180 189 247.5 256.5 180 256.5 288 297 288"/>
    <polyline class="cls-2" points="81 72 121.5 180 189 72 256.5 180 297 72"/>
  </g>
  <g>
    <polygon class="cls-1" points="288 288 288 72 180 180 72 72 72 288 112.5 288 112.5 180 180 247.5 247.5 180 247.5 288 288 288"/>
    <polyline class="cls-1" points="72 72 112.5 180 180 72 247.5 180 288 72"/>
  </g>
</svg>