<?xml version="1.0" encoding="UTF-8"?>
<svg id="Layer_1" data-name="Layer 1" xmlns="http://www.w3.org/2000/svg" viewBox="0 0 308 308">
  <defs>
    <style>
      .cls-1 {
        fill: #364645;
        stroke: #364645;
      }

      .cls-1, .cls-2 {
        stroke-linecap: round;
      }

      .cls-1, .cls-2, .cls-3 {
        stroke-miterlimit: 10;
        stroke-width: 2px;
      }

      .cls-2, .cls-3 {
        fill: none;
        stroke: #e0ae7c;
      }

      .cls-4 {
        font-size: 26.38px;
        letter-spacing: -.07em;
      }

      .cls-4, .cls-5 {
        fill: #e0ae7c;
        font-family: Splendid66-Bold, 'Splendid 66';
        font-weight: 700;
      }

      .cls-5 {
        font-size: 12.08px;
      }
    </style>
  </defs>
  <rect class="cls-1" x="1" y=".5" width="308" height="308"/>
  <path class="cls-2" d="m157,71.5c-34.79,0-63,28.21-63,63,0,7.42,1.28,14.54,3.64,21.16,8.69,24.39,31.99,41.84,59.36,41.84s50.71-17.49,59.39-41.92c2.34-6.59,3.61-13.69,3.61-21.08,0-2.29-.12-6.13-.92-10.8-1.08-6.3-2.43-14.16-7.08-20.2-7.71-10.02-17.96-6.55-24-16-3.05-4.78-3.29-10.15-3-14"/>
  <line class="cls-3" x1="98" y1="156.5" x2="216" y2="156.5"/>
  <line class="cls-2" x1="117" y1="156.5" x2="134" y2="136.5"/>
  <line class="cls-2" x1="144.46" y1="156.5" x2="127.46" y2="136.5"/>
  <circle class="cls-3" cx="123.5" cy="101" r="7.5"/>
  <line class="cls-2" x1="176.26" y1="156.5" x2="176.26" y2="114.5"/>
  <line class="cls-2" x1="176" y1="123.5" x2="180" y2="119.5"/>
  <line class="cls-2" x1="176" y1="133.5" x2="182" y2="127.5"/>
  <line class="cls-2" x1="176" y1="145.5" x2="186" y2="135.5"/>
  <line class="cls-2" x1="176" y1="124.5" x2="172" y2="120.5"/>
  <line class="cls-2" x1="176" y1="134.5" x2="170" y2="128.5"/>
  <line class="cls-2" x1="176" y1="146.5" x2="166" y2="136.5"/>
  <line class="cls-2" x1="132.84" y1="96.18" x2="138.04" y2="93.18"/>
  <line class="cls-2" x1="123" y1="111.5" x2="123" y2="117.5"/>
  <line class="cls-2" x1="128.32" y1="110.34" x2="131.32" y2="115.54"/>
  <line class="cls-2" x1="132.34" y1="106.68" x2="137.54" y2="109.68"/>
  <line class="cls-2" x1="134" y1="101.5" x2="140" y2="101.5"/>
  <path class="cls-3" d="m223.11,121.69c-1.87.72-3.98-.21-4.7-2.09s.21-3.98,2.09-4.7c1.47-.57,5.84.15,7.66.48.38.07.55.51.31.81-1.13,1.47-3.89,4.92-5.36,5.49Z"/>
  <path class="cls-3" d="m213.57,116.76c1.97-.37,3.87.93,4.24,2.9s-.93,3.87-2.9,4.24c-1.55.29-5.71-1.2-7.44-1.85-.36-.14-.44-.6-.16-.86,1.37-1.24,4.71-4.14,6.26-4.43Z"/>
  <path class="cls-3" d="m207.45,104.61c1.79-.9,3.98-.17,4.88,1.62s.17,3.98-1.62,4.88c-1.41.7-5.82.42-7.67.26-.38-.03-.59-.46-.39-.78.98-1.57,3.39-5.28,4.8-5.98Z"/>
  <path class="cls-3" d="m218.5,106.71c-1.79.9-3.98.17-4.88-1.62s-.17-3.98,1.62-4.88c1.41-.7,5.82-.42,7.67-.26.38.03.59.46.39.78-.98,1.57-3.39,5.28-4.8,5.98Z"/>
  <path class="cls-3" d="m207.02,95.4c-1.33,1.51-3.62,1.65-5.13.33s-1.65-3.62-.33-5.13c1.04-1.18,5.24-2.58,7.01-3.12.36-.11.72.2.65.58-.32,1.82-1.16,6.17-2.2,7.35Z"/>
  <path class="cls-3" d="m196.49,90.58c-1.52,1.31-3.82,1.14-5.12-.39s-1.14-3.82.39-5.12c1.19-1.03,5.55-1.82,7.37-2.12.38-.06.69.3.57.66-.57,1.76-2.01,5.95-3.2,6.97Z"/>
  <path class="cls-3" d="m189.97,81.68c-1.9.65-3.97-.35-4.62-2.25s.35-3.97,2.25-4.62c1.49-.51,5.83.35,7.63.75.37.08.53.53.28.82-1.18,1.43-4.06,4.78-5.55,5.3Z"/>
  <path class="cls-3" d="m196.87,96.94c1.3-1.53,3.59-1.72,5.12-.42s1.72,3.59.42,5.12c-1.02,1.2-5.19,2.67-6.95,3.24-.36.12-.72-.19-.66-.56.29-1.83,1.06-6.19,2.08-7.38Z"/>
  <path class="cls-3" d="m184.83,90.66c1.64-1.16,3.9-.78,5.07.85s.78,3.9-.85,5.07c-1.28.91-5.69,1.31-7.54,1.44-.38.03-.66-.36-.51-.71.73-1.7,2.54-5.74,3.83-6.65Z"/>
  <path class="cls-3" d="m180.06,77.65c1.91-.62,3.96.43,4.58,2.34.62,1.91-.43,3.96-2.34,4.58-1.5.48-5.82-.47-7.62-.9-.37-.09-.52-.54-.27-.83,1.2-1.4,4.15-4.7,5.65-5.19Z"/>
  <text class="cls-5" transform="translate(145.98 178.8)"><tspan x="0" y="0">1972</tspan></text>
  <text class="cls-4" transform="translate(86.45 227.38)"><tspan x="0" y="0">Golden Valley</tspan></text>
</svg>