<?xml version="1.0" encoding="UTF-8"?>
<svg id="Mockups" xmlns="http://www.w3.org/2000/svg" viewBox="0 0 360 344">
  <defs>
    <style>
      .cls-1 {
        fill: none;
        stroke: #fff;
        stroke-linejoin: round;
        stroke-width: 4.75px;
      }

      .cls-2 {
        fill: #fff;
      }
    </style>
  </defs>
  <rect x="0" y="0" width="360" height="344"/>
  <polygon class="cls-1" points="183.89 92.36 110.47 135.62 110.47 218.21 183.89 261.47 258.62 218.21 257.3 133 183.89 92.36"/>
  <path class="cls-2" d="m169.9,208.87l-.78.62-33.85-.16v-2.97h1.17c1.49,0,1.8-.47,2.03-2.66.23-2.42.47-7.97.47-12.66v-23.37c0-4.69-.16-5.86-.94-6.72-.47-.55-1.33-.78-2.35-.78h-1.95v-2.97h21.57v2.97h-1.88c-1.49,0-1.8.47-2.03,2.66-.23,2.5-.47,8.13-.47,12.9v19.85c0,3.52.08,4.77.31,6.1.47,2.42,2.19,3.13,6.1,3.13,2.5,0,5.86-.55,8.05-1.88,1.56-1.02,2.66-2.58,3.28-5.32l.47-2.11,3.6.78-2.81,12.58Z"/>
  <path class="cls-2" d="m171,136.22c3.35,0,11.2-.26,18.16-.26,8.88,0,15.71.39,22.15,4.64,3.99,2.7,6.82,7.21,6.82,13.52,0,9.53-6.95,16.35-19.19,20.6v.26c15.45,1.16,24.98,8.37,24.98,20.86,0,8.11-3.86,15.06-10.69,19.83-6.57,4.63-13.65,6.44-25.62,6.44h-34.77v-4.89h1.93c2.45,0,2.96-.77,3.35-4.38.39-3.99.77-13.14.77-20.86v-38.5c0-7.73-.26-9.66-1.54-11.08-.77-.9-2.19-1.29-3.86-1.29h-3.22v-4.89h20.73Zm12.1,6.05c-.77,0-2.58.13-3.61.52-.77,11.07-.9,15.71-.9,24.21v6.82c1.29.13,1.93.13,2.7.13,10.04,0,16.1-5.67,16.1-17.25,0-9.79-5.92-14.42-14.29-14.42Zm1.29,37.73c-1.8,0-3.22,0-5.79.39v22.92c0,8.37,1.54,12.75,9.66,12.75,8.76,0,14.29-7.34,14.29-18.03,0-11.72-6.57-18.03-18.16-18.03Z"/>
  <path class="cls-2" d="m226.06,204.57s9.81,0,9.81-9.81h4.9v14.71h-14.71"/>
  <polygon class="cls-2" points="166.04 204.6 196.63 204.6 196.63 209.48 167.2 209.48 166.04 204.6"/>
</svg>