<?xml version="1.0" encoding="UTF-8"?>
<svg id="Mockups" xmlns="http://www.w3.org/2000/svg" viewBox="0 0 881 560">
  <defs>
    <style>
      .cls-1 {
        stroke-width: 5px;
      }

      .cls-1, .cls-2 {
        fill: none;
        stroke: #000;
        stroke-linejoin: round;
      }

      .cls-2 {
        stroke-width: 3px;
      }

      .cls-3 {
        fill: #0c8c8a;
      }
    </style>
  </defs>
  <rect class="cls-3" x="140.5" y="80" width="600" height="400"/>
  <polygon class="cls-2" points="689.43 406.5 663.82 421.59 663.82 450.41 689.43 465.5 715.5 450.41 715.04 420.68 689.43 406.5"/>
  <path d="m684.55,447.15l-.27.22-11.81-.05v-1.04h.41c.52,0,.63-.16.71-.93.08-.85.16-2.78.16-4.42v-8.15c0-1.64-.05-2.05-.33-2.35-.16-.19-.46-.27-.82-.27h-.68v-1.04h7.53v1.04h-.65c-.52,0-.63.16-.71.93-.08.87-.16,2.84-.16,4.5v6.93c0,1.23.03,1.66.11,2.13.16.85.76,1.09,2.13,1.09.87,0,2.05-.19,2.81-.65.55-.35.93-.9,1.15-1.85l.16-.74,1.25.27-.98,4.39Z"/>
  <path d="m684.93,421.8c1.17,0,3.91-.09,6.33-.09,3.1,0,5.48.13,7.73,1.62,1.39.94,2.38,2.52,2.38,4.72,0,3.32-2.43,5.7-6.69,7.19v.09c5.39.4,8.72,2.92,8.72,7.28,0,2.83-1.35,5.26-3.73,6.92-2.29,1.62-4.76,2.25-8.94,2.25h-12.13v-1.71h.67c.85,0,1.03-.27,1.17-1.53.13-1.39.27-4.58.27-7.28v-13.43c0-2.7-.09-3.37-.54-3.86-.27-.31-.76-.45-1.35-.45h-1.12v-1.71h7.23Zm4.22,2.11c-.27,0-.9.04-1.26.18-.27,3.86-.31,5.48-.31,8.45v2.38c.45.05.67.05.94.05,3.5,0,5.62-1.98,5.62-6.02,0-3.41-2.07-5.03-4.99-5.03Zm.45,13.16c-.63,0-1.12,0-2.02.13v8c0,2.92.54,4.45,3.37,4.45,3.05,0,4.99-2.56,4.99-6.29,0-4.09-2.29-6.29-6.33-6.29Z"/>
  <path d="m704.14,445.65s3.42,0,3.42-3.42h1.71v5.13h-5.13"/>
  <polygon points="683.2 445.66 693.87 445.66 693.87 447.36 683.61 447.36 683.2 445.66"/>
  <polygon class="cls-1" points="438.77 187.5 361.5 233.03 361.5 319.97 438.77 365.5 517.42 319.97 516.04 230.28 438.77 187.5"/>
  <path d="m424.05,310.13l-.82.66-35.62-.16v-3.13h1.23c1.56,0,1.89-.49,2.14-2.8.25-2.55.49-8.39.49-13.33v-24.6c0-4.94-.16-6.17-.99-7.08-.49-.57-1.4-.82-2.47-.82h-2.06v-3.13h22.71v3.13h-1.97c-1.56,0-1.89.49-2.14,2.8-.25,2.63-.49,8.56-.49,13.57v20.9c0,3.7.08,5.02.33,6.42.49,2.55,2.3,3.29,6.42,3.29,2.63,0,6.17-.58,8.47-1.97,1.65-1.07,2.8-2.72,3.46-5.59l.49-2.22,3.78.82-2.96,13.25Z"/>
  <path d="m425.2,233.67c3.52,0,11.79-.27,19.11-.27,9.35,0,16.53.41,23.31,4.88,4.2,2.85,7.18,7.59,7.18,14.23,0,10.03-7.32,17.21-20.19,21.68v.27c16.26,1.22,26.29,8.81,26.29,21.96,0,8.54-4.07,15.86-11.25,20.87-6.91,4.88-14.37,6.78-26.97,6.78h-36.59v-5.15h2.03c2.57,0,3.12-.81,3.52-4.61.41-4.2.81-13.83.81-21.96v-40.52c0-8.13-.27-10.17-1.63-11.66-.81-.95-2.3-1.35-4.07-1.35h-3.39v-5.15h21.82Zm12.74,6.37c-.81,0-2.71.13-3.8.54-.81,11.66-.95,16.53-.95,25.48v7.18c1.35.14,2.03.14,2.85.14,10.57,0,16.94-5.96,16.94-18.16,0-10.3-6.23-15.18-15.04-15.18Zm1.35,39.71c-1.9,0-3.39,0-6.1.41v24.13c0,8.81,1.63,13.42,10.16,13.42,9.22,0,15.04-7.72,15.04-18.98,0-12.33-6.91-18.97-19.11-18.97Z"/>
  <path d="m483.15,305.61s10.32,0,10.32-10.32h5.16v15.49h-15.49"/>
  <polygon points="419.98 305.64 452.18 305.64 452.18 310.77 421.2 310.77 419.98 305.64"/>
</svg>